<svg width="52" height="53" viewBox="0 0 52 53" fill="none" xmlns="http://www.w3.org/2000/svg">
<path d="M17.7966 13.5256C17.7513 14.0817 17.8249 14.6411 18.0124 15.1665C18.2 15.6919 18.4973 16.1714 18.8844 16.5731C19.1206 16.8159 19.3024 17.1061 19.4178 17.4245C19.5332 17.7429 19.5796 18.0822 19.5538 18.4199C19.5204 18.7707 19.4128 19.1104 19.2382 19.4164C19.0636 19.7224 18.8258 19.9879 18.5408 20.195L18.1637 20.4815C16.9475 21.4056 16.25 22.7714 16.25 24.229V24.561C16.25 27.0515 18.4369 29.0776 21.125 29.0776H25.1875V40.4526H26.8125V29.0776H30.875C33.5631 29.0776 35.75 27.0515 35.75 24.561V24.229C35.75 22.7714 35.0525 21.4056 33.8363 20.4815L33.4592 20.195C33.1742 19.9879 32.9365 19.7225 32.7618 19.4164C32.5872 19.1104 32.4796 18.7707 32.4462 18.4199C32.4204 18.0822 32.4668 17.7429 32.5822 17.4245C32.6976 17.1061 32.8794 16.8159 33.1156 16.5731C33.5027 16.1714 33.8 15.6919 33.9876 15.1665C34.1751 14.6411 34.2487 14.0817 34.2034 13.5256C34.1532 12.9565 33.9824 12.4046 33.7024 11.9065C33.4224 11.4085 33.0397 10.9757 32.5796 10.637L31.9394 10.1506C31.5947 9.89814 31.3045 9.57859 31.0863 9.21116C30.8682 8.84373 30.7265 8.436 30.6699 8.01245L30.3835 5.66243C30.1475 3.7257 28.3874 2.26514 26.2892 2.26514H25.7108C23.6126 2.26514 21.8525 3.7257 21.6165 5.66243L21.3301 8.01245C21.2735 8.436 21.1318 8.84373 20.9137 9.21116C20.6955 9.57859 20.4053 9.89814 20.0606 10.1506L19.4204 10.637C18.9603 10.9757 18.5776 11.4085 18.2976 11.9065C18.0176 12.4046 17.8468 12.9565 17.7966 13.5256ZM20.4035 11.9309L21.0437 11.4445C21.562 11.0611 21.9975 10.5768 22.324 10.0208C22.6504 9.46481 22.861 8.84853 22.9432 8.20902L23.2296 5.859C23.3663 4.73656 24.433 3.89014 25.7108 3.89014H26.2892C27.567 3.89014 28.6337 4.73656 28.7704 5.859L29.0568 8.20902C29.139 8.84853 29.3496 9.46481 29.676 10.0208C30.0025 10.5768 30.438 11.0611 30.9563 11.4445L31.5965 11.9309C31.8743 12.1328 32.1061 12.3914 32.2763 12.6896C32.4466 12.9879 32.5515 13.3189 32.5841 13.6608C32.6091 13.9899 32.5639 14.3204 32.4514 14.6307C32.3389 14.9409 32.1618 15.2236 31.9316 15.4601C31.5384 15.868 31.2366 16.355 31.0461 16.8886C30.8556 17.4222 30.7808 17.9902 30.8268 18.555C30.8779 19.133 31.0514 19.6936 31.3357 20.1995C31.6201 20.7053 32.0089 21.1449 32.4762 21.489L32.8532 21.7754C33.6615 22.3895 34.125 23.2838 34.125 24.229V24.561C34.125 26.1555 32.6671 27.4526 30.875 27.4526H26.8125V26.9767L30.2308 23.5584L29.0817 22.4093L26.8125 24.6785V20.4767L29.8245 17.4647L28.6755 16.3155L26.8125 18.1785V14.7892L29.012 12.5897L27.863 11.4405L26.8125 12.491V7.14014H25.1875V15.741L22.512 13.0655L21.363 14.2147L25.1875 18.0392V23.0535L23.3245 21.1905L22.1755 22.3397L25.1875 25.3517V27.4526H21.125C19.3329 27.4526 17.875 26.1555 17.875 24.561V24.229C17.875 23.2838 18.3385 22.3895 19.1468 21.7754L19.5239 21.489C19.9912 21.1449 20.3799 20.7053 20.6643 20.1995C20.9487 19.6936 21.1221 19.133 21.1732 18.555C21.2192 17.9902 21.1444 17.4222 20.9539 16.8886C20.7634 16.355 20.4615 15.868 20.0683 15.4601C19.8382 15.2236 19.661 14.9409 19.5485 14.6307C19.4361 14.3204 19.3909 13.9898 19.4159 13.6608C19.4485 13.319 19.5534 12.9879 19.7237 12.6897C19.8939 12.3914 20.1257 12.1328 20.4035 11.9309Z" fill="#FAD71B"/>
<path d="M40.625 29.0479L30.875 31.707V37.4425C30.8813 40.3949 31.7928 43.2743 33.4866 45.6925C35.1803 48.1107 37.5749 49.9513 40.3473 50.9662L40.625 51.0671L40.9027 50.9662C43.6751 49.9513 46.0697 48.1107 47.7634 45.6925C49.4572 43.2743 50.3687 40.3949 50.375 37.4425V31.707L40.625 29.0479ZM48.75 37.4425C48.7443 40.0109 47.9665 42.5182 46.5176 44.6388C45.0687 46.7595 43.0156 48.3955 40.625 49.3343C38.2344 48.3955 36.1813 46.7595 34.7324 44.6388C33.2835 42.5182 32.5057 40.0109 32.5 37.4425V32.9481L40.625 30.7322L48.75 32.9482V37.4425Z" fill="#FAD71B"/>
<path d="M37.1374 39.8779L35.9883 41.027L39.0004 44.0389L46.8874 36.152L45.7383 35.0029L39.0004 41.741L37.1374 39.8779Z" fill="#FAD71B"/>
<path d="M20.3125 40.5586V38.8276C20.959 38.8276 21.579 38.5708 22.0361 38.1137C22.4932 37.6566 22.75 37.0366 22.75 36.3901C22.75 35.7436 22.4932 35.1236 22.0361 34.6665C21.579 34.2094 20.959 33.9526 20.3125 33.9526H20.2599C20.0775 32.5219 19.4251 31.1922 18.4052 30.1724C17.3854 29.1525 16.0557 28.5001 14.625 28.3177V28.2651C14.625 27.6186 14.3682 26.9986 13.9111 26.5415C13.454 26.0844 12.834 25.8276 12.1875 25.8276C11.541 25.8276 10.921 26.0844 10.4639 26.5415C10.0068 26.9986 9.75 27.6186 9.75 28.2651V28.3177C8.31927 28.5001 6.98963 29.1525 5.96976 30.1724C4.94989 31.1922 4.29754 32.5219 4.11509 33.9526H4.0625C3.41603 33.9526 2.79605 34.2094 2.33893 34.6665C1.88181 35.1236 1.625 35.7436 1.625 36.3901C1.625 37.0366 1.88181 37.6566 2.33893 38.1137C2.79605 38.5708 3.41603 38.8276 4.0625 38.8276V40.5586C3.6215 40.697 3.2319 40.9639 2.94368 41.3252C2.65546 41.6865 2.48177 42.1257 2.44489 42.5864C2.40802 43.0471 2.50964 43.5083 2.73673 43.9109C2.96381 44.3134 3.306 44.639 3.71938 44.8457L4.19322 45.0826C4.71265 46.7985 5.77035 48.3016 7.20998 49.37C8.64961 50.4383 10.3948 51.0151 12.1875 51.0151C13.9802 51.0151 15.7254 50.4383 17.165 49.37C18.6046 48.3016 19.6623 46.7985 20.1818 45.0826L20.6557 44.8457C21.069 44.639 21.4112 44.3134 21.6383 43.9109C21.8654 43.5083 21.967 43.0471 21.9301 42.5864C21.8932 42.1257 21.7195 41.6865 21.4313 41.3252C21.1431 40.9639 20.7535 40.697 20.3125 40.5586ZM9.75 29.9591V31.5151H11.375V28.2651C11.375 28.0496 11.4606 27.8429 11.613 27.6906C11.7653 27.5382 11.972 27.4526 12.1875 27.4526C12.403 27.4526 12.6097 27.5382 12.762 27.6906C12.9144 27.8429 13 28.0496 13 28.2651V31.5151H14.625V29.9591C15.6222 30.1294 16.5419 30.6051 17.2572 31.3204C17.9725 32.0357 18.4482 32.9554 18.6185 33.9526H5.7565C5.92681 32.9554 6.40246 32.0357 7.11778 31.3204C7.8331 30.6051 8.75282 30.1294 9.75 29.9591ZM3.25 36.3901C3.25025 36.1747 3.33593 35.9682 3.48825 35.8158C3.64057 35.6635 3.84709 35.5778 4.0625 35.5776H20.3125C20.528 35.5776 20.7347 35.6632 20.887 35.8156C21.0394 35.9679 21.125 36.1746 21.125 36.3901C21.125 36.6056 21.0394 36.8123 20.887 36.9646C20.7347 37.117 20.528 37.2026 20.3125 37.2026H4.0625C3.84709 37.2024 3.64057 37.1167 3.48825 36.9644C3.33593 36.812 3.25025 36.6055 3.25 36.3901ZM19.9289 43.3923L18.817 43.9482L18.6562 44.5107C18.2546 45.9165 17.406 47.1531 16.2388 48.0335C15.0716 48.9139 13.6494 49.3901 12.1874 49.3901C10.7255 49.3901 9.30327 48.9138 8.13612 48.0334C6.96896 47.153 6.12036 45.9164 5.71874 44.5106L5.55802 43.9482L4.44614 43.3923C4.3063 43.3224 4.19417 43.2073 4.12791 43.0657C4.06165 42.9241 4.04514 42.7643 4.08106 42.6121C4.11697 42.46 4.20321 42.3244 4.3258 42.2274C4.44839 42.1304 4.60014 42.0776 4.75648 42.0776H5.6875V38.8276H18.6875V42.0776H19.6185C19.7749 42.0776 19.9266 42.1304 20.0492 42.2274C20.1718 42.3244 20.258 42.46 20.2939 42.6121C20.3299 42.7643 20.3134 42.9241 20.2471 43.0657C20.1809 43.2073 20.0687 43.3223 19.9289 43.3923Z" fill="#FAD71B"/>
<path d="M6.56155 28.201C6.52073 27.6854 6.50001 27.1602 6.50001 26.6402C6.49699 22.5593 7.77513 18.5805 10.1541 15.2648C12.5332 11.9492 15.893 9.46403 19.7599 8.15982L19.2401 6.62012C15.0511 8.03294 11.4112 10.7251 8.83388 14.317C6.25655 17.9089 4.87183 22.2193 4.87501 26.6402C4.87501 27.2028 4.89742 27.7712 4.94161 28.3294L6.56155 28.201Z" fill="#FAD71B"/>
<path d="M25.9995 46.1403C24.6895 46.1407 23.3827 46.01 22.0987 45.7502L21.7754 47.3427C25.1391 48.0232 28.6176 47.8802 31.9141 46.9259L31.46 45.3657C29.6856 45.8809 27.8472 46.1417 25.9995 46.1403Z" fill="#FAD71B"/>
<path d="M45.5001 26.6402C45.5 27.4226 45.4536 28.2043 45.3611 28.9812L46.9746 29.1742C47.0748 28.3332 47.125 27.4871 47.1251 26.6402C47.1282 22.2193 45.7435 17.9089 43.1662 14.317C40.5889 10.7251 36.949 8.03294 32.7599 6.62012L32.2402 8.15982C36.107 9.46403 39.4669 11.9492 41.8459 15.2648C44.2249 18.5805 45.5031 22.5593 45.5001 26.6402Z" fill="#FAD71B"/>
</svg>
