<svg width="52" height="53" viewBox="0 0 52 53" fill="none" xmlns="http://www.w3.org/2000/svg">
<path d="M29.2496 2.26514C21.1983 2.51702 15.446 6.0102 11.9929 10.8927L11.3579 10.2576C10.8935 9.81453 10.2762 9.56733 9.63434 9.56733C8.99244 9.56733 8.37519 9.81453 7.91074 10.2576L4.46355 13.7051C2.79779 15.3866 1.86328 17.6577 1.86328 20.0246C1.86328 22.3914 2.79779 24.6626 4.46355 26.344L26.2954 48.1759C27.9768 49.8417 30.248 50.7763 32.6149 50.7763C34.9817 50.7763 37.2529 49.8417 38.9343 48.1759L42.3819 44.7291C42.8363 44.2704 43.0912 43.6509 43.0912 43.0053C43.0912 42.3597 42.8363 41.7402 42.3819 41.2815L41.7387 40.6383C56.5008 30.3273 52.3402 2.99639 29.2496 2.26514ZM9.0601 11.4065C9.21279 11.255 9.4192 11.1699 9.63434 11.1699C9.84947 11.1699 10.0559 11.255 10.2085 11.4065L17.7865 18.9848C17.9295 19.1269 18.0143 19.3173 18.0243 19.5187C18.0344 19.72 17.969 19.9179 17.8408 20.0736L15.7237 22.6619L6.76089 13.7057L9.0601 11.4065ZM17.6684 12.9584L20.0625 15.3525C20.7969 16.1092 21.9679 14.9376 21.2114 14.2036L18.8218 11.814C21.5086 9.50058 24.895 8.15739 28.4371 8.00025V11.2026C28.4371 11.4181 28.5227 11.6248 28.675 11.7771C28.8274 11.9295 29.0341 12.0151 29.2496 12.0151C29.465 12.0151 29.6717 11.9295 29.8241 11.7771C29.9765 11.6248 30.0621 11.4181 30.0621 11.2026V8.00878C33.6017 8.1664 36.9859 9.50817 39.6718 11.8189L37.2873 14.2035C36.5326 14.937 37.7007 16.1109 38.4362 15.3524L40.8196 12.9688C43.1597 15.6388 44.5141 19.0301 44.6571 22.5776H41.4371C41.2216 22.5776 41.0149 22.6632 40.8625 22.8156C40.7102 22.9679 40.6246 23.1746 40.6246 23.3901C40.6246 23.6056 40.7102 23.8123 40.8625 23.9646C41.0149 24.117 41.2216 24.2026 41.4371 24.2026H44.6597C44.5172 27.7506 43.1617 31.1422 40.8196 33.8111L38.4363 31.4278C37.7018 30.6712 36.531 31.8427 37.2874 32.5767L39.6747 34.9642C39.0314 35.5361 38.3377 36.0487 37.6021 36.4957L37.5979 36.4981L34.8037 33.7042C34.3773 33.2752 33.8062 33.0207 33.202 32.9904C32.5979 32.9602 32.0042 33.1565 31.5371 33.5408L27.4929 36.8495C27.3373 36.9779 27.1393 37.0435 26.9379 37.0334C26.7364 37.0233 26.546 36.9381 26.4041 36.7947L15.8445 26.2355C15.7015 26.0932 15.6167 25.9027 15.6067 25.7012C15.5966 25.4998 15.662 25.3018 15.7902 25.146L19.0984 21.1026C19.4828 20.6356 19.6792 20.042 19.649 19.4379C19.6189 18.8338 19.3644 18.2627 18.9354 17.8363L16.1252 15.0259L16.1277 15.0214C16.5792 14.2894 17.0948 13.5992 17.6684 12.9584ZM27.4444 47.0273L5.61258 25.1955C4.24363 23.8234 3.4747 21.9643 3.47441 20.0261C3.47412 18.0879 4.2425 16.2286 5.61104 14.8561L14.6857 23.9306C14.2329 24.392 13.9801 25.0131 13.982 25.6595C13.9838 26.3059 14.2402 26.9256 14.6956 27.3844L25.2553 37.9437C25.7139 38.3994 26.3336 38.656 26.9801 38.6579C27.6265 38.6599 28.2478 38.407 28.7091 37.9541L37.7838 47.0288C36.4114 48.3977 34.5521 49.1662 32.6138 49.1659C30.6754 49.1656 28.8164 48.3966 27.4444 47.0273ZM41.2331 43.5807L38.9337 45.8792L29.9779 36.916L32.5655 34.7992C32.721 34.6705 32.919 34.6047 33.1206 34.6147C33.3222 34.6246 33.5128 34.7097 33.6549 34.8532L41.2331 42.4307C41.3846 42.5837 41.4696 42.7904 41.4696 43.0057C41.4696 43.2211 41.3846 43.4277 41.2331 43.5807ZM40.5606 39.4609L38.7812 37.6815C51.3577 29.6693 48.1884 6.92889 29.2496 6.32764C22.4408 6.53889 17.6714 9.61827 14.9496 13.8432L14.947 13.8471L13.171 12.0709C16.3398 7.45645 21.6939 4.13389 29.2496 3.89014C50.6746 4.56452 54.4452 30.0515 40.5606 39.4609ZM21.1327 21.0613C21.1554 20.3193 21.466 19.6153 21.9987 19.0983C23.042 18.0185 25.1637 17.9108 26.4746 18.4818C26.8419 18.662 27.1676 18.9169 27.4309 19.23C27.6942 19.5432 27.8893 19.9078 28.0038 20.3006C28.1183 20.6934 28.1497 21.1057 28.0959 21.5113C28.0421 21.9169 27.9043 22.3068 27.6913 22.6562C26.9334 23.8615 26.5479 23.9671 25.3074 25.0357C24.6192 25.5355 24.0146 26.1413 23.5162 26.8306H27.1757C28.5086 26.6854 28.745 28.4786 27.3788 28.4849H22.2194C20.7536 28.459 20.9631 26.9757 21.7075 26.1855C22.5628 25.2652 23.4835 24.4079 24.4624 23.6203C25.1093 23.2089 25.6393 22.6378 26.0013 21.962C26.2116 21.591 26.2669 21.152 26.1554 20.7405C26.0438 20.3289 25.7743 19.978 25.4055 19.7641C25.1693 19.6387 24.907 19.5704 24.6396 19.5647C24.3722 19.559 24.1072 19.6161 23.8659 19.7314C23.6246 19.8466 23.4137 20.0169 23.2501 20.2284C23.0865 20.44 22.9748 20.687 22.9239 20.9495C22.7775 22.083 21.1718 22.3231 21.1327 21.0613ZM30.3501 26.2907H33.8698V27.5944C33.8444 27.7237 33.8479 27.8571 33.8802 27.985C33.9124 28.1128 33.9726 28.2319 34.0563 28.3338C34.1401 28.4356 34.2454 28.5176 34.3646 28.5739C34.4838 28.6302 34.614 28.6594 34.7458 28.6594C34.8777 28.6594 35.0079 28.6302 35.1271 28.5739C35.2463 28.5176 35.3516 28.4356 35.4353 28.3338C35.5191 28.2319 35.5793 28.1128 35.6115 27.985C35.6437 27.8571 35.6473 27.7237 35.6218 27.5944V26.2907C36.0401 26.3422 36.4644 26.278 36.8487 26.1051C37.229 25.8835 37.1981 25.0093 36.7892 24.8673C36.4144 24.7388 36.0171 24.6888 35.6221 24.7205V19.2951C35.6221 18.4818 35.2669 18.075 34.5565 18.0747C33.9613 18.1087 33.8191 18.5006 33.3932 19.0071L29.6775 23.9773C29.407 24.3714 29.0438 24.6886 29.0189 25.1691C29.0269 25.9431 29.5561 26.2967 30.3501 26.2907ZM33.8698 20.6477V24.7205H30.8555L33.8698 20.6477Z" fill="#FAD71B"/>
</svg>
