<svg width="52" height="53" viewBox="0 0 52 53" fill="none" xmlns="http://www.w3.org/2000/svg">
<path d="M30.6513 16.7257C30.4609 16.7237 30.2763 16.6595 30.1256 16.5429C29.9469 16.4021 29.831 16.1964 29.8032 15.9706C29.7754 15.7448 29.8379 15.5171 29.9771 15.3372L35.5085 8.27435C35.5752 8.03984 35.554 7.78904 35.4487 7.5691C35.3435 7.34916 35.1615 7.17525 34.9371 7.08007L31.6856 5.78292C31.4827 5.70104 31.3185 5.54512 31.2262 5.34674C31.1339 5.14835 31.1204 4.9223 31.1885 4.71435L31.3599 4.20578C31.3301 3.89304 31.1847 3.60266 30.9523 3.39134C30.7198 3.18002 30.4169 3.06292 30.1028 3.06292H22.0513C21.7378 3.06305 21.4356 3.18034 21.2041 3.39177C20.9726 3.60321 20.8284 3.89353 20.7999 4.20578L20.9771 4.68006C21.0594 4.88998 21.0551 5.12399 20.9651 5.33075C20.8751 5.53751 20.7068 5.70012 20.4971 5.78292L17.2285 7.09721C17.004 7.19239 16.8221 7.36631 16.7168 7.58624C16.6116 7.80618 16.5903 8.05698 16.6571 8.29149L22.1885 15.3543C22.3277 15.5343 22.3902 15.7619 22.3624 15.9877C22.3345 16.2136 22.2186 16.4192 22.0399 16.56C21.9516 16.6295 21.8503 16.6808 21.742 16.711C21.6337 16.7411 21.5205 16.7496 21.409 16.7357C21.2974 16.7219 21.1897 16.6862 21.092 16.6305C20.9943 16.5748 20.9087 16.5004 20.8399 16.4115L15.2056 9.21149C15.1569 9.14837 15.1166 9.07923 15.0856 9.00578C14.8211 8.34235 14.8287 7.6014 15.1068 6.94355C15.385 6.2857 15.9111 5.76398 16.5713 5.49149L19.0742 4.48578C19.0686 4.43259 19.0686 4.37896 19.0742 4.32578C19.0757 3.53666 19.3899 2.78028 19.9479 2.22229C20.5059 1.66429 21.2622 1.35014 22.0513 1.34863H30.1028C30.8924 1.34863 31.6496 1.6623 32.2079 2.22062C32.7663 2.77894 33.0799 3.53619 33.0799 4.32578C33.0827 4.37907 33.0827 4.43248 33.0799 4.48578L35.5771 5.49149C36.2418 5.76068 36.7729 6.28198 37.0545 6.94152C37.3361 7.60106 37.3452 8.34524 37.0799 9.01149C37.0512 9.08603 37.0106 9.15548 36.9599 9.21721L31.3313 16.3943C31.2506 16.4976 31.1474 16.5811 31.0296 16.6385C30.9118 16.6959 30.7824 16.7258 30.6513 16.7257Z" fill="#FAD71B"/>
<path d="M35.7028 51.9315H16.4571C16.1999 51.9315 10.4856 51.9029 7.11423 48.0915C5.19423 45.9201 4.44566 43.0001 4.89709 39.4058C6.49709 26.6229 19.1313 16.3029 21.1428 15.4515C22.5313 14.8801 29.6571 14.8801 31.0456 15.4515C33.0399 16.3029 45.6742 26.6172 47.2742 39.4058C47.7256 43.0001 46.9771 45.9201 45.0571 48.0915C41.7142 51.8743 35.9999 51.9315 35.7028 51.9315ZM26.0799 16.7315C24.1713 16.7315 22.2571 16.8286 21.7999 17.0286C20.7828 17.4629 8.15423 27.1772 6.59423 39.6172C6.21138 42.6972 6.81709 45.1601 8.38852 46.9486C11.2456 50.1772 16.3885 50.2172 16.4571 50.2172H35.6971C35.7485 50.2172 40.9142 50.1772 43.7656 46.9486C45.3371 45.1601 45.9428 42.6972 45.5599 39.6172C43.9999 27.1715 31.3713 17.4629 30.3542 17.0286C29.8971 16.8286 27.9999 16.7315 26.0799 16.7315Z" fill="#FAD71B"/>
<path d="M29.7666 9.98276C29.6184 9.98263 29.4728 9.94409 29.344 9.8709C29.2151 9.79771 29.1075 9.69236 29.0315 9.56515C28.9555 9.43793 28.9138 9.2932 28.9104 9.14506C28.9071 8.99692 28.9422 8.85044 29.0123 8.71991L31.2523 4.57134C31.3607 4.37129 31.5441 4.22248 31.7621 4.15764C31.9802 4.09281 32.2151 4.11726 32.4152 4.22562C32.6152 4.33398 32.764 4.51737 32.8289 4.73545C32.8937 4.95353 32.8692 5.18843 32.7609 5.38848L30.5209 9.53134C30.4481 9.66808 30.3394 9.78238 30.2065 9.86192C30.0736 9.94147 29.9215 9.98325 29.7666 9.98276Z" fill="#FAD71B"/>
<path d="M22.508 9.98276C22.3531 9.98325 22.201 9.94147 22.0681 9.86192C21.9352 9.78238 21.8265 9.66808 21.7537 9.53134L19.5137 5.38848C19.4054 5.18843 19.3809 4.95353 19.4457 4.73545C19.5106 4.51737 19.6594 4.33398 19.8594 4.22562C20.0595 4.11726 20.2944 4.09281 20.5125 4.15764C20.7305 4.22248 20.9139 4.37129 21.0223 4.57134L23.2623 8.71991C23.3324 8.85044 23.3675 8.99692 23.3642 9.14506C23.3608 9.2932 23.3191 9.43793 23.2431 9.56515C23.1671 9.69236 23.0595 9.79771 22.9306 9.8709C22.8018 9.94409 22.6562 9.98263 22.508 9.98276Z" fill="#FAD71B"/>
<path d="M27.2635 43.4975H24.8978C23.892 43.496 22.9278 43.0958 22.2165 42.3846C21.5053 41.6733 21.1051 40.7091 21.1035 39.7033V38.7547C21.1035 38.5274 21.1938 38.3093 21.3546 38.1486C21.5153 37.9879 21.7334 37.8975 21.9607 37.8975C22.188 37.8975 22.406 37.9879 22.5668 38.1486C22.7275 38.3093 22.8178 38.5274 22.8178 38.7547V39.6861C22.8156 39.9607 22.8677 40.233 22.9712 40.4874C23.0747 40.7417 23.2276 40.973 23.421 41.168C23.6143 41.363 23.8444 41.5177 24.0979 41.6233C24.3513 41.7289 24.6232 41.7833 24.8978 41.7833H27.2635C27.8142 41.7817 28.3418 41.5619 28.7306 41.172C29.1195 40.7821 29.3378 40.2539 29.3378 39.7033V37.6804C29.3077 37.3374 29.1804 37.0101 28.9709 36.7368C28.7614 36.4636 28.4784 36.2557 28.155 36.1375L23.315 34.2747C22.6756 34.0457 22.1213 33.627 21.7261 33.0746C21.331 32.5222 21.1138 31.8624 21.1035 31.1833V29.2118C21.1051 28.206 21.5053 27.2418 22.2165 26.5305C22.9278 25.8193 23.892 25.4191 24.8978 25.4175H27.2578C28.2637 25.4191 29.2279 25.8193 29.9391 26.5305C30.6504 27.2418 31.0506 28.206 31.0521 29.2118V30.149C31.0521 30.3763 30.9618 30.5943 30.8011 30.7551C30.6403 30.9158 30.4223 31.0061 30.195 31.0061C29.9676 31.0061 29.7496 30.9158 29.5889 30.7551C29.4281 30.5943 29.3378 30.3763 29.3378 30.149V29.2118C29.3378 28.6602 29.1187 28.1311 28.7286 27.741C28.3385 27.351 27.8095 27.1318 27.2578 27.1318H24.8978C24.3462 27.1318 23.8171 27.351 23.427 27.741C23.037 28.1311 22.8178 28.6602 22.8178 29.2118V31.2118C22.832 31.5421 22.9445 31.8605 23.141 32.1263C23.3376 32.3921 23.6091 32.593 23.9207 32.7033L28.795 34.5775C29.4415 34.8172 30.0031 35.242 30.4096 35.7989C30.8161 36.3558 31.0495 37.0202 31.0807 37.709V39.7147C31.0792 40.2139 30.9792 40.708 30.7864 41.1685C30.5936 41.629 30.3119 42.0469 29.9573 42.3984C29.6026 42.7498 29.1822 43.0278 28.7199 43.2164C28.2577 43.405 27.7628 43.5006 27.2635 43.4975Z" fill="#FAD71B"/>
<path d="M26.2848 46.1887C26.0575 46.1887 25.8395 46.0984 25.6787 45.9376C25.518 45.7769 25.4277 45.5589 25.4277 45.3315V23.6515C25.4277 23.4242 25.518 23.2062 25.6787 23.0454C25.8395 22.8847 26.0575 22.7944 26.2848 22.7944C26.5122 22.7944 26.7302 22.8847 26.8909 23.0454C27.0517 23.2062 27.142 23.4242 27.142 23.6515V45.3315C27.142 45.5589 27.0517 45.7769 26.8909 45.9376C26.7302 46.0984 26.5122 46.1887 26.2848 46.1887Z" fill="#FAD71B"/>
</svg>
